<svg width="12" height="9" viewBox="0 0 12 9" fill="none" xmlns="http://www.w3.org/2000/svg">
<path d="M1.79127 0.0414324L10.2113 0.0414332C10.5437 0.0409516 10.8694 0.134619 11.1508 0.311592C11.4322 0.488565 11.6577 0.741609 11.8013 1.04143C11.9693 1.39717 12.034 1.79297 11.9881 2.1837C11.9421 2.57444 11.7873 2.9444 11.5413 3.25143L7.33127 8.35143C7.16606 8.54206 6.96179 8.69495 6.73232 8.79973C6.50285 8.90451 6.25354 8.95874 6.00127 8.95874C5.74901 8.95874 5.4997 8.90451 5.27023 8.79973C5.04075 8.69495 4.83649 8.54206 4.67127 8.35143L0.461273 3.25143C0.215267 2.9444 0.0604587 2.57444 0.0144898 2.1837C-0.0314792 1.79296 0.0332419 1.39717 0.201275 1.04143C0.344816 0.741608 0.570333 0.488564 0.851721 0.311591C1.13311 0.134618 1.45886 0.0409508 1.79127 0.0414324Z" fill="white"/>
</svg>
